<svg width="70" height="49" viewBox="0 0 70 49" fill="none" xmlns="http://www.w3.org/2000/svg">
<path d="M9.68533 48.4964L9.48445 20.3721L0.328431 20.4375L0.286469 14.5627L9.44248 14.4973L9.42217 11.6536C9.39628 8.02868 10.3776 5.40702 12.3661 3.78861C14.3752 2.14921 17.6194 1.31352 22.0984 1.28153C26.765 1.2482 29.6612 1.30043 30.7873 1.43822L30.8263 6.90683C29.5338 6.79106 26.6897 6.74888 22.2939 6.78027C18.4399 6.8078 16.5233 8.29028 16.5443 11.2277L16.5673 14.4464L30.8794 14.3441L30.9214 20.219L16.7343 20.3203L16.9351 48.4446L9.68533 48.4964ZM39.9346 48.2803L39.5957 0.844043L46.6581 0.793598L46.7947 19.9181L47.2634 19.9148C48.1027 17.8254 49.4453 16.2116 51.2914 15.0734C53.1374 13.9143 55.3311 13.3257 57.8727 13.3076C61.6018 13.2809 64.4637 14.3543 66.4584 16.5276C68.4532 18.7009 69.4652 21.8396 69.4945 25.9436L69.6526 48.0681L62.3715 48.1201L62.2262 27.7768C62.1875 22.3603 59.8349 19.6687 55.1683 19.702C52.7101 19.7196 50.7366 20.5254 49.2479 22.1194C47.7591 23.6926 47.024 25.7812 47.0426 28.3853L47.1844 48.2285L39.9346 48.2803Z" fill="#64FFDA"/>
</svg>
