<svg width="95" height="96" viewBox="0 0 95 96" fill="none" xmlns="http://www.w3.org/2000/svg">
<path d="M17.4624 75.5485L17.2238 42.1509L6.35106 42.2286L6.30123 35.2522L17.174 35.1745L17.1499 31.7977C17.1191 27.4931 18.2844 24.3799 20.6458 22.458C23.0317 20.5112 26.884 19.5189 32.2029 19.4809C37.7444 19.4413 41.1838 19.5033 42.5209 19.6669L42.5673 26.1609C41.0324 26.0234 37.655 25.9733 32.4351 26.0106C27.8584 26.0433 25.5825 27.8038 25.6074 31.2919L25.6347 35.1141L42.6304 34.9927L42.6802 41.9691L25.833 42.0894L26.0715 75.487L17.4624 75.5485ZM53.3833 75.2919L52.981 18.9614L61.3675 18.9014L61.5297 41.6118L62.0863 41.6078C63.083 39.1267 64.6774 37.2103 66.8696 35.8587C69.0617 34.4823 71.6668 33.7833 74.6849 33.7618C79.1132 33.7302 82.5117 35.0047 84.8804 37.5855C87.2492 40.1663 88.451 43.8935 88.4858 48.7671L88.6735 75.0399L80.0272 75.1016L79.8546 50.9441C79.8087 44.5119 77.015 41.3156 71.4734 41.3552C68.5542 41.3761 66.2108 42.3329 64.443 44.2258C62.675 46.094 61.8021 48.5742 61.8242 51.6666L61.9925 75.2305L53.3833 75.2919Z" fill="#64FFDA"/>
</svg>
