<svg width="53" height="37" viewBox="0 0 53 37" fill="none" xmlns="http://www.w3.org/2000/svg">
<path d="M8.01578 36.3872L7.86512 15.294L0.998109 15.343L0.966637 10.9369L7.83365 10.8879L7.81842 8.7551C7.799 6.03642 8.53497 4.07018 10.0263 2.85637C11.5332 1.62683 13.9663 1.00006 17.3256 0.976063C20.8255 0.951065 22.9977 0.990238 23.8422 1.09358L23.8715 5.19504C22.9021 5.10821 20.769 5.07657 17.4722 5.10012C14.5817 5.12077 13.1443 6.23263 13.16 8.43569L13.1773 10.8497L23.9114 10.773L23.9428 15.1792L13.3025 15.2552L13.4531 36.3484L8.01578 36.3872ZM30.7027 36.2252L30.4486 0.647949L35.7453 0.610115L35.8478 14.9535L36.1993 14.951C36.8288 13.384 37.8358 12.1736 39.2203 11.3199C40.6048 10.4507 42.2501 10.0092 44.1563 9.99559C46.9531 9.97561 49.0996 10.7806 50.5956 12.4106C52.0917 14.0406 52.8507 16.3946 52.8727 19.4726L52.9912 36.066L47.5304 36.105L47.4214 20.8475C47.3924 16.7852 45.6279 14.7665 42.128 14.7915C40.2843 14.8046 38.8042 15.409 37.6877 16.6045C36.5711 17.7843 36.0198 19.3508 36.0338 21.3039L36.1401 36.1863L30.7027 36.2252Z" fill="#64FFDA"/>
</svg>
