<svg width="95" height="114" viewBox="0 0 95 114" fill="none" xmlns="http://www.w3.org/2000/svg">
<path d="M17.4621 95.6204L17.2236 62.2228L6.35082 62.3005L6.30099 55.3241L17.1738 55.2464L17.1496 51.8696C17.1189 47.565 18.2842 44.4518 20.6455 42.5299C23.0314 40.5831 26.8838 39.5908 32.2027 39.5528C37.7442 39.5132 41.1835 39.5752 42.5207 39.7388L42.5671 46.2328C41.0322 46.0953 37.6548 46.0452 32.4349 46.0825C27.8582 46.1152 25.5823 47.8757 25.6072 51.3638L25.6345 55.186L42.6301 55.0646L42.68 62.041L25.8327 62.1613L26.0713 95.5589L17.4621 95.6204ZM53.3831 95.3638L52.9807 39.0333L61.3672 38.9733L61.5295 61.6837L62.0861 61.6797C63.0827 59.1986 64.6771 57.2822 66.8694 55.9306C69.0614 54.5542 71.6665 53.8552 74.6847 53.8337C79.1129 53.8021 82.5114 55.0766 84.8802 57.6574C87.249 60.2382 88.4507 63.9654 88.4856 68.839L88.6732 95.1118L80.0269 95.1735L79.8544 71.0159C79.8085 64.5838 77.0147 61.3875 71.4732 61.4271C68.554 61.448 66.2105 62.4048 64.4427 64.2977C62.6748 66.1659 61.8019 68.6461 61.8239 71.7385L61.9922 95.3024L53.3831 95.3638Z" fill="#64FFDA"/>
</svg>
